<svg xmlns="http://www.w3.org/2000/svg" viewBox="0 0 24 24" fill="currentColor"><path d="M19.14 12.94c.04-.3.06-.61.06-.94 0-.32-.02-.64-.07-.94l2.03-1.58c.18-.14.23-.41.1-.62l-1.92-3.32c-.12-.22-.39-.3-.61-.22l-2.39.96c-.5-.39-1.03-.74-1.62-.99l-.36-2.54c-.04-.24-.25-.41-.5-.41h-3.84c-.25 0-.46.17-.49.41l-.36 2.54c-.59.25-1.13.61-1.62.99l-2.39-.96c-.22-.09-.49 0-.61.22l-1.92 3.32c-.13.21-.08.48.1.62l2.03 1.58c-.05.3-.07.62-.07.94s.02.64.07.94l-2.03 1.58c-.18.14-.23.41-.1.62l1.92 3.32c.12.22.39.3.61.22l2.39-.96c.5.39 1.03.74 1.62.99l.36 2.54c.03.24.24.41.49.41h3.84c.25 0 .46-.17.49-.41l.36-2.54c.59-.25 1.13-.61 1.62-.99l2.39.96c.22.09.49 0 .61-.22l1.92-3.32c.12-.22.07-.48-.1-.62l-2.03-1.58zM12 15.6c-1.98 0-3.6-1.62-3.6-3.6s1.62-3.6 3.6-3.6 3.6 1.62 3.6 3.6-1.62 3.6-3.6 3.6z"/></svg>